<?xml version="1.0" standalone="no"?><!DOCTYPE svg PUBLIC "-//W3C//DTD SVG 1.1//EN" "http://www.w3.org/Graphics/SVG/1.1/DTD/svg11.dtd"><svg height="1024" node-id="1" sillyvg="true" template-height="1024" template-width="1024" version="1.1" viewBox="0 0 1024 1024" width="1024" xmlns="http://www.w3.org/2000/svg" xmlns:xlink="http://www.w3.org/1999/xlink"><defs node-id="82"><radialGradient cx="0.5" cy="0.024678005" fx="0.5" fy="0.024678005" gradientTransform="matrix(-0.01748041 0.99965267 -0.66306062 -0.02635406 0.52510321 -0.47449797)" gradientUnits="objectBoundingBox" id="radialGradient-1" node-id="5" r="0.70727026" rev="14" spreadMethod="pad"><stop offset="0" stop-color="#0052d9" stop-opacity="0.15156181"></stop><stop offset="1" stop-color="#0052d9" stop-opacity="0"></stop></radialGradient><linearGradient gradientUnits="objectBoundingBox" id="linearGradient-2" node-id="8" spreadMethod="pad" x1="0.5" x2="0.5" y1="0" y2="1"><stop offset="0" stop-color="#72a0e8"></stop><stop offset="0.9939955" stop-color="#3981f7"></stop></linearGradient><linearGradient gradientUnits="objectBoundingBox" id="linearGradient-3" node-id="11" spreadMethod="pad" x1="0.5" x2="0.5" y1="0" y2="1"><stop offset="0.0127618965" stop-color="#b7d2ff"></stop><stop offset="1" stop-color="#93bbff"></stop></linearGradient><linearGradient gradientUnits="objectBoundingBox" id="linearGradient-4" node-id="14" spreadMethod="pad" x1="0.5" x2="0.5" y1="0" y2="1"><stop offset="0" stop-color="#72a0e8"></stop><stop offset="0.9939955" stop-color="#3981f7"></stop></linearGradient><linearGradient gradientUnits="objectBoundingBox" id="linearGradient-5" node-id="17" spreadMethod="pad" x1="0.5" x2="0.5" y1="0" y2="1"><stop offset="0.0127618965" stop-color="#b7d2ff"></stop><stop offset="1" stop-color="#93bbff"></stop></linearGradient><linearGradient gradientUnits="objectBoundingBox" id="linearGradient-6" node-id="20" spreadMethod="pad" x1="0.5" x2="0.5" y1="0" y2="1"><stop offset="0" stop-color="#72a0e8"></stop><stop offset="0.9939955" stop-color="#3981f7"></stop></linearGradient><linearGradient gradientUnits="objectBoundingBox" id="linearGradient-7" node-id="23" spreadMethod="pad" x1="0.5" x2="0.5" y1="0" y2="1"><stop offset="0.0127618965" stop-color="#b7d2ff"></stop><stop offset="1" stop-color="#93bbff"></stop></linearGradient><linearGradient gradientUnits="objectBoundingBox" id="linearGradient-8" node-id="26" spreadMethod="pad" x1="0" x2="0" y1="1" y2="0"><stop offset="0" stop-color="#7492ff"></stop><stop offset="1" stop-color="#496ae0"></stop></linearGradient><linearGradient gradientUnits="objectBoundingBox" id="linearGradient-9" node-id="29" spreadMethod="pad" x1="0" x2="0" y1="1" y2="0"><stop offset="0" stop-color="#9ebdef"></stop><stop offset="0.97966975" stop-color="#71a2f2"></stop></linearGradient><linearGradient gradientUnits="objectBoundingBox" id="linearGradient-11" node-id="33" spreadMethod="pad" x1="0.8023701" x2="0.18888474" y1="0.61340225" y2="-0.09300757"><stop offset="0" stop-color="#5e9bff"></stop><stop offset="1" stop-color="#e2edff"></stop></linearGradient><linearGradient gradientUnits="objectBoundingBox" id="linearGradient-12" node-id="36" spreadMethod="pad" x1="0.22785416" x2="1.1686281" y1="0.52119374" y2="0.4222341"><stop offset="0" stop-color="#5e9bff"></stop><stop offset="1" stop-color="#e2edff"></stop></linearGradient><linearGradient gradientUnits="objectBoundingBox" id="linearGradient-13" node-id="39" spreadMethod="pad" x1="0" x2="1" y1="0" y2="0"><stop offset="0" stop-color="#c6d2ff"></stop><stop offset="1" stop-color="#f1f4ff"></stop></linearGradient><linearGradient gradientUnits="objectBoundingBox" id="linearGradient-14" node-id="42" spreadMethod="pad" x1="0" x2="0" y1="1" y2="0"><stop offset="0" stop-color="#dfe6ff"></stop><stop offset="1" stop-color="#fafbff"></stop></linearGradient><radialGradient cx="0.24042307" cy="0.5" fx="0.24042307" fy="0.5" gradientUnits="objectBoundingBox" id="radialGradient-15" node-id="45" r="0.66169447" rev="1" spreadMethod="pad"><stop offset="0" stop-color="#f2f7ff"></stop><stop offset="1" stop-color="#99c0ff"></stop></radialGradient></defs><g node-id="212"><g node-id="213"><path d="M 945.26 736.99 L 945.03 746.23 L 944.34 755.41 L 943.21 764.53 L 941.63 773.61 L 939.60 782.66 L 937.11 791.67 L 933.59 802.25 L 929.46 812.74 L 924.71 823.14 L 919.31 833.48 L 913.24 843.76 L 906.77 853.59 L 899.69 863.30 L 891.98 872.90 L 883.62 882.39 L 874.59 891.78 L 865.34 900.62 L 855.48 909.28 L 845.00 917.78 L 833.87 926.11 L 822.06 934.27 L 810.13 941.88 L 797.77 949.16 L 784.97 956.13 L 771.72 962.79 L 758.00 969.11 L 744.22 974.95 L 730.10 980.44 L 715.63 985.57 L 700.80 990.34 L 685.60 994.75 L 670.40 998.70 L 654.96 1002.26 L 639.26 1005.43 L 623.30 1008.20 L 607.07 1010.58 L 590.89 1012.51 L 574.55 1014.02 L 558.07 1015.11 L 541.43 1015.76 L 524.63 1015.99 L 507.83 1015.76 L 491.19 1015.11 L 474.71 1014.02 L 458.37 1012.51 L 442.19 1010.58 L 425.96 1008.20 L 410.00 1005.43 L 394.30 1002.26 L 378.86 998.70 L 363.66 994.75 L 348.46 990.34 L 333.63 985.57 L 319.16 980.44 L 305.04 974.95 L 291.26 969.11 L 277.54 962.79 L 264.29 956.13 L 251.49 949.16 L 239.13 941.88 L 227.20 934.27 L 215.39 926.11 L 204.26 917.78 L 193.78 909.28 L 183.92 900.62 L 174.67 891.78 L 165.64 882.39 L 157.28 872.90 L 149.57 863.30 L 142.49 853.59 L 136.02 843.76 L 129.95 833.48 L 124.55 823.14 L 119.80 812.74 L 115.67 802.25 L 112.15 791.67 L 109.66 782.66 L 107.63 773.61 L 106.05 764.53 L 104.92 755.41 L 104.23 746.23 L 104.00 736.99 L 104.23 727.75 L 104.92 718.57 L 106.05 709.45 L 107.63 700.37 L 109.66 691.32 L 112.15 682.31 L 115.67 671.73 L 119.80 661.24 L 124.55 650.84 L 129.95 640.50 L 136.02 630.22 L 142.49 620.39 L 149.57 610.68 L 157.28 601.08 L 165.64 591.59 L 174.67 582.20 L 183.92 573.36 L 193.78 564.70 L 204.26 556.20 L 215.39 547.87 L 227.20 539.71 L 239.13 532.10 L 251.49 524.82 L 264.29 517.85 L 277.54 511.19 L 291.26 504.87 L 305.04 499.03 L 319.16 493.54 L 333.63 488.41 L 348.46 483.64 L 363.66 479.23 L 378.86 475.28 L 394.30 471.72 L 410.00 468.55 L 425.96 465.78 L 442.19 463.40 L 458.37 461.47 L 474.71 459.96 L 491.19 458.87 L 507.83 458.22 L 524.63 457.99 L 541.43 458.22 L 558.07 458.87 L 574.55 459.96 L 590.89 461.47 L 607.07 463.40 L 623.30 465.78 L 639.26 468.55 L 654.96 471.72 L 670.40 475.28 L 685.60 479.23 L 700.80 483.64 L 715.63 488.41 L 730.10 493.54 L 744.22 499.03 L 758.00 504.87 L 771.72 511.19 L 784.97 517.85 L 797.77 524.82 L 810.13 532.10 L 822.06 539.71 L 833.87 547.87 L 845.00 556.20 L 855.48 564.70 L 865.34 573.36 L 874.59 582.20 L 883.62 591.59 L 891.98 601.08 L 899.69 610.68 L 906.77 620.39 L 913.24 630.22 L 919.31 640.50 L 924.71 650.84 L 929.46 661.24 L 933.59 671.73 L 937.11 682.31 L 939.60 691.32 L 941.63 700.37 L 943.21 709.45 L 944.34 718.57 L 945.03 727.75 Z" fill="url(#radialGradient-1)" fill-rule="nonzero" group-id="1,2" id="椭圆形" node-id="51" stroke="none" target-height="558" target-width="841.26" target-x="104" target-y="457.99"></path><g node-id="215"><path d="M 242.40 554.99 L 252.78 554.99 L 252.78 609.66 L 252.58 611.11 L 252.08 612.35 L 251.26 613.43 L 250.21 614.27 L 249.00 614.79 L 247.59 614.99 L 247.59 614.99 L 246.18 614.79 L 244.98 614.27 L 243.92 613.43 L 243.11 612.35 L 242.60 611.11 L 242.40 609.66 Z" fill="#3f78d6" fill-rule="nonzero" group-id="1,2,4" node-id="175" stroke="none" target-height="60" target-width="10.37999" target-x="242.40001" target-y="554.99"></path><path d="M 242.40 524.99 L 266.63 588.32 L 242.40 604.99 Z" fill="url(#linearGradient-2)" fill-rule="evenodd" group-id="1,2,4" node-id="177" stroke="none" target-height="80" target-width="24.229996" target-x="242.40001" target-y="524.99"></path><path d="M 242.40 524.99 L 221.63 594.99 L 242.40 604.99 Z" fill="url(#linearGradient-3)" fill-rule="evenodd" group-id="1,2,4" node-id="179" stroke="none" target-height="80" target-width="20.770004" target-x="221.63" target-y="524.99"></path></g><g node-id="216"><path d="M 819.63 512.99 L 827.63 512.99 L 827.63 555.81 L 827.31 557.45 L 826.46 558.77 L 825.19 559.66 L 823.63 559.99 L 823.63 559.99 L 822.07 559.66 L 820.80 558.77 L 819.95 557.45 L 819.63 555.81 Z" fill="#3f78d6" fill-rule="nonzero" group-id="1,2,5" node-id="183" stroke="none" target-height="47" target-width="8" target-x="819.63" target-y="512.99"></path><path d="M 819.63 489.99 L 838.63 539.07 L 819.63 551.99 Z" fill="url(#linearGradient-4)" fill-rule="evenodd" group-id="1,2,5" node-id="185" stroke="none" target-height="62" target-width="19" target-x="819.63" target-y="489.99"></path><path d="M 819.63 489.99 L 803.63 544.24 L 819.63 551.99 Z" fill="url(#linearGradient-5)" fill-rule="evenodd" group-id="1,2,5" node-id="187" stroke="none" target-height="62" target-width="16" target-x="803.63" target-y="489.99"></path></g><g node-id="217"><path d="M 293.63 480.99 L 301.63 480.99 L 301.63 521.99 L 301.31 523.56 L 300.46 524.82 L 299.20 525.67 L 297.63 525.99 L 297.63 525.99 L 296.06 525.67 L 294.80 524.82 L 293.95 523.56 L 293.63 521.99 Z" fill="#3f78d6" fill-rule="nonzero" group-id="1,2,6" node-id="191" stroke="none" target-height="45" target-width="8" target-x="293.63" target-y="480.99"></path><path d="M 293.63 457.99 L 311.63 505.49 L 293.63 517.99 Z" fill="url(#linearGradient-6)" fill-rule="evenodd" group-id="1,2,6" node-id="193" stroke="none" target-height="60" target-width="18" target-x="293.63" target-y="457.99"></path><path d="M 293.63 457.99 L 277.63 510.49 L 293.63 517.99 Z" fill="url(#linearGradient-7)" fill-rule="evenodd" group-id="1,2,6" node-id="195" stroke="none" target-height="60" target-width="16" target-x="277.63" target-y="457.99"></path></g></g><g node-id="214"><g node-id="218"><path d="M 423.35 273.00 L 419.32 273.23 L 415.65 273.83 L 412.31 274.79 L 409.25 276.08 L 406.33 277.75 L 403.69 279.70 L 401.29 281.94 L 399.14 284.48 L 396.69 288.20 L 394.65 292.34 L 393.04 296.94 L 391.92 301.71 L 391.24 306.78 L 391.00 312.20 L 391.00 322.00 L 446.00 322.00 L 446.00 318.73 L 445.77 311.59 L 445.19 305.55 L 444.32 300.46 L 443.06 295.42 L 441.65 291.24 L 440.13 287.82 L 438.28 284.53 L 436.46 281.88 L 434.68 279.78 L 431.75 277.07 L 429.22 275.33 L 426.74 274.05 L 425.03 273.41 L 423.35 273.00 Z" fill="#5577f0" fill-rule="evenodd" group-id="1,3,7" id="路径" node-id="66" stroke="none" target-height="49" target-width="55" target-x="391" target-y="273"></path><g node-id="219"><g node-id="220"><path d="M 423.35 273.00 L 419.32 273.23 L 415.65 273.83 L 412.31 274.79 L 409.25 276.08 L 406.33 277.75 L 403.69 279.70 L 401.29 281.94 L 399.14 284.48 L 396.69 288.20 L 394.65 292.34 L 393.04 296.94 L 391.92 301.71 L 391.24 306.78 L 391.00 312.20 L 391.00 322.00 L 446.00 322.00 L 446.00 318.73 L 445.77 311.59 L 445.19 305.55 L 444.32 300.46 L 443.06 295.42 L 441.65 291.24 L 440.13 287.82 L 438.28 284.53 L 436.46 281.88 L 434.68 279.78 L 431.75 277.07 L 429.22 275.33 L 426.74 274.05 L 425.03 273.41 L 423.35 273.00 Z" fill="url(#linearGradient-8)" fill-rule="nonzero" group-id="1,3,7,8,9" node-id="205" stroke="none" target-height="49" target-width="55" target-x="391" target-y="273"></path></g><path d="M 423.35 273.00 L 419.32 273.23 L 415.65 273.83 L 412.31 274.79 L 409.25 276.08 L 406.33 277.75 L 403.69 279.70 L 401.29 281.94 L 399.14 284.48 L 396.69 288.20 L 394.65 292.34 L 393.04 296.94 L 391.92 301.71 L 391.24 306.78 L 391.00 312.20 L 391.00 322.00 L 446.00 322.00 L 446.00 318.73 L 445.77 311.59 L 445.19 305.55 L 444.32 300.46 L 443.06 295.42 L 441.65 291.24 L 440.13 287.82 L 438.28 284.53 L 436.46 281.88 L 434.68 279.78 L 431.75 277.07 L 429.22 275.33 L 426.74 274.05 L 425.03 273.41 L 423.35 273.00 Z" fill="url(#linearGradient-9)" fill-rule="nonzero" group-id="1,3,7,8,10" node-id="210" stroke="none" target-height="49" target-width="55" target-x="391" target-y="273"></path></g><path d="M 633.00 535.00 L 633.00 311.98 L 632.78 307.93 L 632.20 304.07 L 631.25 300.37 L 629.95 296.81 L 627.68 292.28 L 624.91 288.16 L 621.62 284.42 L 617.88 281.12 L 613.77 278.34 L 609.26 276.06 L 605.71 274.75 L 602.02 273.80 L 598.17 273.22 L 594.14 273.00 L 410.00 273.00 L 414.05 273.24 L 417.53 273.85 L 420.53 274.80 L 423.11 276.06 L 425.52 277.72 L 427.63 279.65 L 429.46 281.87 L 431.02 284.42 L 432.66 288.06 L 433.96 292.17 L 434.91 296.81 L 435.49 301.52 L 435.84 306.56 L 435.94 311.98 L 435.94 509.13 L 436.32 511.04 L 436.88 513.02 L 437.93 515.83 L 439.34 518.76 L 441.41 522.06 L 443.05 524.16 L 445.06 526.23 L 447.46 528.29 L 450.05 530.07 L 453.12 531.67 L 456.73 533.08 L 460.46 534.08 L 464.82 534.74 L 469.90 535.00 L 492.60 535.00 L 518.44 535.00 L 545.53 535.00 L 571.95 535.00 L 595.81 535.00 L 615.20 535.00 L 628.23 535.00 L 633.00 535.00 Z" fill="#ffe2d7" fill-rule="evenodd" group-id="1,3,7" id="路径" node-id="70" stroke="none" target-height="262" target-width="223" target-x="410" target-y="273"></path><path d="M 633.00 535.00 L 633.00 311.98 L 632.78 307.93 L 632.20 304.07 L 631.25 300.37 L 629.95 296.81 L 627.68 292.28 L 624.91 288.16 L 621.62 284.42 L 617.88 281.12 L 613.77 278.34 L 609.26 276.06 L 605.71 274.75 L 602.02 273.80 L 598.17 273.22 L 594.14 273.00 L 410.00 273.00 L 414.05 273.24 L 417.53 273.85 L 420.53 274.80 L 423.11 276.06 L 425.52 277.72 L 427.63 279.65 L 429.46 281.87 L 431.02 284.42 L 432.66 288.06 L 433.96 292.17 L 434.91 296.81 L 435.49 301.52 L 435.84 306.56 L 435.94 311.98 L 435.94 509.13 L 436.32 511.04 L 436.88 513.02 L 437.93 515.83 L 439.34 518.76 L 441.41 522.06 L 443.05 524.16 L 445.06 526.23 L 447.46 528.29 L 450.05 530.07 L 453.12 531.67 L 456.73 533.08 L 460.46 534.08 L 464.82 534.74 L 469.90 535.00 L 492.60 535.00 L 518.44 535.00 L 545.53 535.00 L 571.95 535.00 L 595.81 535.00 L 615.20 535.00 L 628.23 535.00 L 633.00 535.00 Z" fill="url(#linearGradient-11)" fill-rule="evenodd" group-id="1,3,7" id="路径" node-id="71" stroke="none" target-height="262" target-width="223" target-x="410" target-y="273"></path><path d="M 483.88 493.00 L 665.00 493.00 L 664.91 496.11 L 664.28 503.89 L 663.61 508.71 L 662.57 514.00 L 661.14 519.23 L 659.25 524.11 L 657.65 527.17 L 655.82 529.74 L 653.77 531.89 L 652.01 533.21 L 650.09 534.16 L 647.96 534.76 L 645.59 535.00 L 638.46 535.00 L 623.64 535.00 L 603.08 535.00 L 578.71 535.00 L 552.48 535.00 L 526.32 535.00 L 502.17 535.00 L 481.97 535.00 L 467.66 535.00 L 461.19 535.00 L 464.48 535.00 L 466.85 534.76 L 468.97 534.16 L 470.90 533.21 L 472.65 531.89 L 474.70 529.74 L 476.53 527.17 L 478.13 524.11 L 480.02 519.23 L 481.46 514.00 L 482.49 508.71 L 483.16 503.89 L 483.79 496.11 L 483.88 493.00 Z" fill="#5577f0" fill-rule="evenodd" group-id="1,3,7" id="路径" node-id="72" stroke="none" target-height="42" target-width="203.81424" target-x="461.18576" target-y="493"></path><path d="M 483.88 493.00 L 665.00 493.00 L 664.91 496.11 L 664.28 503.89 L 663.61 508.71 L 662.57 514.00 L 661.14 519.23 L 659.25 524.11 L 657.65 527.17 L 655.82 529.74 L 653.77 531.89 L 652.01 533.21 L 650.09 534.16 L 647.96 534.76 L 645.59 535.00 L 638.46 535.00 L 623.64 535.00 L 603.08 535.00 L 578.71 535.00 L 552.48 535.00 L 526.32 535.00 L 502.17 535.00 L 481.97 535.00 L 467.66 535.00 L 461.19 535.00 L 464.48 535.00 L 466.85 534.76 L 468.97 534.16 L 470.90 533.21 L 472.65 531.89 L 474.70 529.74 L 476.53 527.17 L 478.13 524.11 L 480.02 519.23 L 481.46 514.00 L 482.49 508.71 L 483.16 503.89 L 483.79 496.11 L 483.88 493.00 Z" fill="url(#linearGradient-12)" fill-rule="evenodd" group-id="1,3,7" id="路径" node-id="73" stroke="none" target-height="42" target-width="203.81424" target-x="461.18576" target-y="493"></path><path d="M 390.15 321.52 L 393.39 321.52 L 393.37 319.01 L 393.65 312.54 L 394.04 308.43 L 394.70 303.70 L 395.66 298.90 L 396.99 294.06 L 398.76 289.40 L 400.99 285.21 L 402.81 282.67 L 404.87 280.53 L 407.18 278.74 L 409.75 277.40 L 412.68 276.56 L 416.04 276.23 L 418.67 276.52 L 421.01 277.28 L 423.12 278.50 L 425.01 280.10 L 426.73 282.04 L 428.30 284.35 L 430.24 288.14 L 431.84 292.36 L 433.09 296.75 L 434.03 301.10 L 434.72 305.39 L 435.15 309.14 L 435.46 315.05 L 435.46 322.42 L 435.46 337.93 L 435.46 359.52 L 435.46 385.15 L 435.46 412.77 L 435.46 440.34 L 435.46 465.80 L 435.46 487.12 L 435.46 502.24 L 435.46 509.12 L 435.64 511.37 L 436.32 514.47 L 437.41 517.68 L 439.07 521.22 L 441.22 524.62 L 443.99 527.88 L 446.12 529.82 L 448.56 531.51 L 451.33 532.97 L 454.26 534.04 L 457.58 534.73 L 461.35 535.00 L 464.19 534.78 L 466.72 534.23 L 468.99 533.37 L 471.03 532.19 L 473.50 530.19 L 475.67 527.78 L 477.56 524.90 L 479.12 521.80 L 480.44 518.44 L 481.52 514.80 L 482.71 509.23 L 483.48 503.59 L 483.89 498.00 L 484.00 492.95 L 480.76 489.72 L 480.64 492.83 L 479.94 500.62 L 479.23 505.44 L 478.16 510.74 L 476.70 515.98 L 474.80 520.86 L 473.20 523.93 L 471.39 526.50 L 469.36 528.65 L 467.63 529.97 L 465.74 530.93 L 463.66 531.53 L 461.35 531.77 L 457.61 531.49 L 454.43 530.78 L 451.72 529.68 L 449.20 528.17 L 447.03 526.40 L 445.19 524.36 L 442.91 520.90 L 441.21 517.16 L 440.00 513.25 L 439.23 509.47 L 438.81 505.76 L 438.69 502.65 L 438.69 495.23 L 438.69 480.15 L 438.69 459.35 L 438.69 434.74 L 438.69 408.26 L 438.69 381.82 L 438.69 357.36 L 438.69 336.79 L 438.69 322.05 L 438.69 315.05 L 438.52 309.06 L 438.22 305.11 L 437.65 300.47 L 436.78 295.74 L 435.51 290.92 L 433.78 286.27 L 431.56 282.06 L 429.74 279.52 L 427.64 277.35 L 425.26 275.54 L 422.62 274.19 L 419.57 273.33 L 416.04 273.00 L 412.87 273.21 L 410.05 273.74 L 407.54 274.57 L 405.28 275.69 L 402.50 277.62 L 400.06 279.92 L 397.96 282.62 L 396.18 285.57 L 394.67 288.72 L 393.42 292.10 L 391.99 297.28 L 391.02 302.42 L 390.40 307.49 L 390.10 311.90 L 390.03 318.83 L 390.15 321.52 Z" fill="#ffffff" fill-rule="evenodd" group-id="1,3,7" id="路径" node-id="74" stroke="none" target-height="262" target-width="93.96994" target-x="390.03006" target-y="273"></path><path d="M 481.00 490.00 L 661.77 490.00 L 665.00 493.00 L 484.23 493.00 Z" fill="#ffffff" fill-rule="evenodd" group-id="1,3,7" id="路径" node-id="75" stroke="none" target-height="3" target-width="184" target-x="481" target-y="490"></path><path d="M 481.00 490.00 L 661.77 490.00 L 665.00 493.00 L 484.23 493.00 Z" fill="url(#linearGradient-13)" fill-rule="nonzero" group-id="1,3,7" id="路径" node-id="76" stroke="none" target-height="3" target-width="184" target-x="481" target-y="490"></path></g><path d="M 612.14 336.86 L 509.18 336.86 L 507.34 336.61 L 505.72 335.91 L 504.33 334.83 L 503.25 333.43 L 502.57 331.79 L 502.32 329.93 L 502.57 328.07 L 503.25 326.43 L 504.33 325.03 L 505.72 323.95 L 507.34 323.25 L 509.18 323.00 L 612.14 323.00 L 613.98 323.25 L 615.60 323.95 L 616.99 325.03 L 618.06 326.43 L 618.75 328.07 L 619.00 329.93 L 618.75 331.79 L 618.06 333.43 L 616.99 334.83 L 615.60 335.91 L 613.98 336.61 L 612.14 336.86 Z M 509.18 413.09 L 536.64 413.09 L 538.47 413.34 L 540.10 414.04 L 541.49 415.12 L 542.56 416.52 L 543.25 418.17 L 543.50 420.02 L 543.25 421.88 L 542.56 423.52 L 541.49 424.92 L 540.10 426.01 L 538.47 426.70 L 536.64 426.95 L 509.18 426.95 L 507.34 426.70 L 505.72 426.01 L 504.33 424.93 L 503.25 423.52 L 502.57 421.88 L 502.32 420.02 L 502.57 418.17 L 503.25 416.52 L 504.33 415.12 L 505.72 414.04 L 507.34 413.34 L 509.18 413.09 Z M 485.16 472.00 L 474.86 472.00 L 473.02 471.75 L 471.40 471.05 L 470.01 469.97 L 468.94 468.57 L 468.25 466.93 L 468.00 465.07 L 468.25 463.21 L 468.94 461.57 L 470.01 460.17 L 471.40 459.09 L 473.02 458.39 L 474.86 458.14 L 485.16 458.14 L 487.00 458.39 L 488.62 459.09 L 490.01 460.17 L 491.09 461.57 L 491.77 463.21 L 492.02 465.07 L 491.77 466.93 L 491.09 468.57 L 490.01 469.97 L 488.62 471.05 L 487.00 471.75 L 485.16 472.00 Z M 485.16 426.95 L 474.86 426.95 L 473.02 426.70 L 471.40 426.01 L 470.01 424.92 L 468.94 423.52 L 468.25 421.88 L 468.00 420.02 L 468.25 418.17 L 468.94 416.52 L 470.01 415.12 L 471.40 414.04 L 473.02 413.34 L 474.86 413.09 L 485.16 413.09 L 487.00 413.34 L 488.62 414.04 L 490.01 415.12 L 491.09 416.52 L 491.77 418.17 L 492.02 420.02 L 491.77 421.88 L 491.09 423.52 L 490.01 424.93 L 488.62 426.01 L 487.00 426.70 L 485.16 426.95 Z M 485.16 381.91 L 474.86 381.91 L 473.02 381.66 L 471.40 380.96 L 470.01 379.88 L 468.94 378.48 L 468.25 376.83 L 468.00 374.98 L 468.25 373.12 L 468.94 371.48 L 470.01 370.08 L 471.40 368.99 L 473.02 368.30 L 474.86 368.05 L 485.16 368.05 L 487.00 368.30 L 488.62 368.99 L 490.01 370.07 L 491.09 371.48 L 491.77 373.12 L 492.02 374.98 L 491.77 376.83 L 491.09 378.48 L 490.01 379.88 L 488.62 380.96 L 487.00 381.66 L 485.16 381.91 Z M 485.16 336.86 L 474.86 336.86 L 473.02 336.61 L 471.40 335.91 L 470.01 334.83 L 468.94 333.43 L 468.25 331.79 L 468.00 329.93 L 468.25 328.07 L 468.94 326.43 L 470.01 325.03 L 471.40 323.95 L 473.02 323.25 L 474.86 323.00 L 485.16 323.00 L 487.00 323.25 L 488.62 323.95 L 490.01 325.03 L 491.09 326.43 L 491.77 328.07 L 492.02 329.93 L 491.77 331.79 L 491.09 333.43 L 490.01 334.83 L 488.62 335.91 L 487.00 336.61 L 485.16 336.86 Z M 509.18 458.14 L 536.64 458.14 L 538.48 458.39 L 540.10 459.09 L 541.49 460.17 L 542.56 461.57 L 543.25 463.21 L 543.50 465.07 L 543.25 466.93 L 542.56 468.57 L 541.49 469.97 L 540.10 471.05 L 538.48 471.75 L 536.64 472.00 L 509.18 472.00 L 507.34 471.75 L 505.72 471.05 L 504.33 469.97 L 503.25 468.57 L 502.57 466.93 L 502.32 465.07 L 502.57 463.21 L 503.25 461.57 L 504.33 460.17 L 505.72 459.09 L 507.34 458.39 L 509.18 458.14 Z M 502.32 374.98 L 502.57 373.12 L 503.25 371.48 L 504.33 370.08 L 505.72 368.99 L 507.34 368.30 L 509.18 368.05 L 608.70 368.05 L 610.54 368.30 L 612.17 368.99 L 613.56 370.08 L 614.63 371.48 L 615.32 373.12 L 615.57 374.98 L 615.32 376.83 L 614.63 378.48 L 613.56 379.88 L 612.17 380.96 L 610.54 381.66 L 608.70 381.91 L 509.18 381.91 L 507.34 381.66 L 505.72 380.96 L 504.33 379.88 L 503.25 378.48 L 502.57 376.83 L 502.32 374.98 Z" fill="#f9faff" fill-rule="evenodd" group-id="1,3" id="形状" node-id="77" stroke="none" target-height="149" target-width="151" target-x="468" target-y="323"></path><path d="M 612.14 336.86 L 509.18 336.86 L 507.34 336.61 L 505.72 335.91 L 504.33 334.83 L 503.25 333.43 L 502.57 331.79 L 502.32 329.93 L 502.57 328.07 L 503.25 326.43 L 504.33 325.03 L 505.72 323.95 L 507.34 323.25 L 509.18 323.00 L 612.14 323.00 L 613.98 323.25 L 615.60 323.95 L 616.99 325.03 L 618.06 326.43 L 618.75 328.07 L 619.00 329.93 L 618.75 331.79 L 618.06 333.43 L 616.99 334.83 L 615.60 335.91 L 613.98 336.61 L 612.14 336.86 Z M 509.18 413.09 L 536.64 413.09 L 538.47 413.34 L 540.10 414.04 L 541.49 415.12 L 542.56 416.52 L 543.25 418.17 L 543.50 420.02 L 543.25 421.88 L 542.56 423.52 L 541.49 424.92 L 540.10 426.01 L 538.47 426.70 L 536.64 426.95 L 509.18 426.95 L 507.34 426.70 L 505.72 426.01 L 504.33 424.93 L 503.25 423.52 L 502.57 421.88 L 502.32 420.02 L 502.57 418.17 L 503.25 416.52 L 504.33 415.12 L 505.72 414.04 L 507.34 413.34 L 509.18 413.09 Z M 485.16 472.00 L 474.86 472.00 L 473.02 471.75 L 471.40 471.05 L 470.01 469.97 L 468.94 468.57 L 468.25 466.93 L 468.00 465.07 L 468.25 463.21 L 468.94 461.57 L 470.01 460.17 L 471.40 459.09 L 473.02 458.39 L 474.86 458.14 L 485.16 458.14 L 487.00 458.39 L 488.62 459.09 L 490.01 460.17 L 491.09 461.57 L 491.77 463.21 L 492.02 465.07 L 491.77 466.93 L 491.09 468.57 L 490.01 469.97 L 488.62 471.05 L 487.00 471.75 L 485.16 472.00 Z M 485.16 426.95 L 474.86 426.95 L 473.02 426.70 L 471.40 426.01 L 470.01 424.92 L 468.94 423.52 L 468.25 421.88 L 468.00 420.02 L 468.25 418.17 L 468.94 416.52 L 470.01 415.12 L 471.40 414.04 L 473.02 413.34 L 474.86 413.09 L 485.16 413.09 L 487.00 413.34 L 488.62 414.04 L 490.01 415.12 L 491.09 416.52 L 491.77 418.17 L 492.02 420.02 L 491.77 421.88 L 491.09 423.52 L 490.01 424.93 L 488.62 426.01 L 487.00 426.70 L 485.16 426.95 Z M 485.16 381.91 L 474.86 381.91 L 473.02 381.66 L 471.40 380.96 L 470.01 379.88 L 468.94 378.48 L 468.25 376.83 L 468.00 374.98 L 468.25 373.12 L 468.94 371.48 L 470.01 370.08 L 471.40 368.99 L 473.02 368.30 L 474.86 368.05 L 485.16 368.05 L 487.00 368.30 L 488.62 368.99 L 490.01 370.07 L 491.09 371.48 L 491.77 373.12 L 492.02 374.98 L 491.77 376.83 L 491.09 378.48 L 490.01 379.88 L 488.62 380.96 L 487.00 381.66 L 485.16 381.91 Z M 485.16 336.86 L 474.86 336.86 L 473.02 336.61 L 471.40 335.91 L 470.01 334.83 L 468.94 333.43 L 468.25 331.79 L 468.00 329.93 L 468.25 328.07 L 468.94 326.43 L 470.01 325.03 L 471.40 323.95 L 473.02 323.25 L 474.86 323.00 L 485.16 323.00 L 487.00 323.25 L 488.62 323.95 L 490.01 325.03 L 491.09 326.43 L 491.77 328.07 L 492.02 329.93 L 491.77 331.79 L 491.09 333.43 L 490.01 334.83 L 488.62 335.91 L 487.00 336.61 L 485.16 336.86 Z M 509.18 458.14 L 536.64 458.14 L 538.48 458.39 L 540.10 459.09 L 541.49 460.17 L 542.56 461.57 L 543.25 463.21 L 543.50 465.07 L 543.25 466.93 L 542.56 468.57 L 541.49 469.97 L 540.10 471.05 L 538.48 471.75 L 536.64 472.00 L 509.18 472.00 L 507.34 471.75 L 505.72 471.05 L 504.33 469.97 L 503.25 468.57 L 502.57 466.93 L 502.32 465.07 L 502.57 463.21 L 503.25 461.57 L 504.33 460.17 L 505.72 459.09 L 507.34 458.39 L 509.18 458.14 Z M 502.32 374.98 L 502.57 373.12 L 503.25 371.48 L 504.33 370.08 L 505.72 368.99 L 507.34 368.30 L 509.18 368.05 L 608.70 368.05 L 610.54 368.30 L 612.17 368.99 L 613.56 370.08 L 614.63 371.48 L 615.32 373.12 L 615.57 374.98 L 615.32 376.83 L 614.63 378.48 L 613.56 379.88 L 612.17 380.96 L 610.54 381.66 L 608.70 381.91 L 509.18 381.91 L 507.34 381.66 L 505.72 380.96 L 504.33 379.88 L 503.25 378.48 L 502.57 376.83 L 502.32 374.98 Z" fill="url(#linearGradient-14)" fill-rule="nonzero" group-id="1,3" id="形状" node-id="78" stroke="none" target-height="149" target-width="151" target-x="468" target-y="323"></path></g><path d="M 735.63 335.49 L 735.29 340.37 L 734.36 344.96 L 732.84 349.31 L 730.77 353.43 L 728.24 357.18 L 725.23 360.59 L 721.82 363.60 L 718.07 366.13 L 713.95 368.20 L 709.60 369.72 L 705.01 370.65 L 700.13 370.99 L 695.25 370.65 L 690.66 369.72 L 686.31 368.20 L 682.19 366.13 L 678.44 363.60 L 675.03 360.59 L 672.02 357.18 L 669.49 353.43 L 667.42 349.31 L 665.90 344.96 L 664.97 340.37 L 664.63 335.49 L 664.97 330.61 L 665.90 326.02 L 667.42 321.67 L 669.49 317.55 L 672.02 313.80 L 675.03 310.39 L 678.44 307.38 L 682.19 304.85 L 686.31 302.78 L 690.66 301.26 L 695.25 300.33 L 700.13 299.99 L 705.01 300.33 L 709.60 301.26 L 713.95 302.78 L 718.07 304.85 L 721.82 307.38 L 725.23 310.39 L 728.24 313.80 L 730.77 317.55 L 732.84 321.67 L 734.36 326.02 L 735.29 330.61 Z" fill="url(#radialGradient-15)" fill-rule="nonzero" group-id="1" id="椭圆形" node-id="79" stroke="none" target-height="71" target-width="71" target-x="664.63" target-y="299.99"></path><path d="M 409.63 423.49 L 409.30 427.05 L 408.41 430.31 L 406.97 433.33 L 405.03 436.07 L 402.71 438.39 L 399.97 440.33 L 396.95 441.77 L 393.69 442.66 L 390.13 442.99 L 386.57 442.66 L 383.31 441.77 L 380.29 440.33 L 377.55 438.39 L 375.23 436.07 L 373.29 433.33 L 371.85 430.31 L 370.96 427.05 L 370.63 423.49 L 370.96 419.93 L 371.85 416.67 L 373.29 413.65 L 375.23 410.91 L 377.55 408.59 L 380.29 406.65 L 383.31 405.21 L 386.57 404.32 L 390.13 403.99 L 393.69 404.32 L 396.95 405.21 L 399.97 406.65 L 402.71 408.59 L 405.03 410.91 L 406.97 413.65 L 408.41 416.67 L 409.30 419.93 Z" fill="url(#radialGradient-15)" fill-opacity="0.56253344" fill-rule="nonzero" group-id="1" id="椭圆形备份" node-id="80" stroke="none" target-height="39" target-width="39" target-x="370.63" target-y="403.99"></path></g></svg>